<svg width="262" height="66" viewBox="0 0 262 66" fill="none" xmlns="http://www.w3.org/2000/svg">
<path d="M2 37L17.9036 17.0869C19.1406 15.2852 22.0916 12.9904 24 18.2247" stroke="#1C32FF" stroke-width="5"/>
<path d="M31.5257 25.1469L37.2301 32.1958C38.8599 33.8875 40.7613 37.2147 35.3286 36.9891C29.8959 36.7635 21.8373 36.8951 18.4871 36.9891C17.6722 36.5192 17.2919 34.1695 22.2901 28.5303C27.2882 22.8912 38.1355 9.82713 42.9344 4L65.4803 32.1958C67.3817 33.7936 70.0437 36.9891 65.4803 36.9891C60.9168 36.9891 51.989 36.9891 48.0955 36.9891C46.7373 36.9891 44.8359 36.0304 48.0955 32.1958C51.3552 28.3612 53.6188 25.8987 54.3432 25.1469" stroke="#1C32FF" stroke-width="5"/>
<path d="M61 17.8613C61.7875 15.7021 64.3075 12.6792 68.0875 17.8613C71.8675 23.0435 78.9375 32.7797 82 37" stroke="#1C32FF" stroke-width="5"/>
<path d="M2 44H84" stroke="#1C32FF" stroke-width="5"/>
<path d="M12 54H73" stroke="#1C32FF" stroke-width="5"/>
<path d="M24 63H61" stroke="#1C32FF" stroke-width="5"/>
<path d="M96.436 41.144C96.94 42.056 97.504 42.848 98.128 43.52C98.776 44.192 99.472 44.708 100.216 45.068C100.984 45.428 101.788 45.608 102.628 45.608C103.516 45.608 104.248 45.392 104.824 44.96C105.4 44.504 105.688 43.892 105.688 43.124C105.688 42.476 105.52 41.96 105.184 41.576C104.848 41.168 104.308 40.784 103.564 40.424C102.82 40.064 101.836 39.656 100.612 39.2C100.012 38.984 99.316 38.684 98.524 38.3C97.756 37.916 97.024 37.424 96.328 36.824C95.632 36.2 95.056 35.456 94.6 34.592C94.144 33.704 93.916 32.636 93.916 31.388C93.916 29.9 94.3 28.616 95.068 27.536C95.86 26.456 96.916 25.64 98.236 25.088C99.58 24.512 101.068 24.224 102.7 24.224C104.38 24.224 105.832 24.5 107.056 25.052C108.304 25.604 109.336 26.3 110.152 27.14C110.968 27.98 111.592 28.832 112.024 29.696L107.38 32.288C107.02 31.688 106.6 31.172 106.12 30.74C105.664 30.284 105.148 29.936 104.572 29.696C104.02 29.432 103.42 29.3 102.772 29.3C101.908 29.3 101.248 29.492 100.792 29.876C100.336 30.236 100.108 30.692 100.108 31.244C100.108 31.82 100.324 32.324 100.756 32.756C101.212 33.188 101.848 33.584 102.664 33.944C103.504 34.304 104.512 34.688 105.688 35.096C106.576 35.432 107.404 35.828 108.172 36.284C108.94 36.716 109.612 37.244 110.188 37.868C110.788 38.492 111.256 39.212 111.592 40.028C111.928 40.844 112.096 41.78 112.096 42.836C112.096 44.108 111.832 45.248 111.304 46.256C110.8 47.24 110.104 48.068 109.216 48.74C108.352 49.412 107.356 49.916 106.228 50.252C105.124 50.612 103.984 50.792 102.808 50.792C101.176 50.792 99.652 50.504 98.236 49.928C96.844 49.328 95.632 48.524 94.6 47.516C93.568 46.508 92.764 45.404 92.188 44.204L96.436 41.144ZM115.588 21.92H120.808V50H115.588V21.92ZM126.82 33.44H133.336L126.244 40.28L134.056 50H127.648L119.728 40.28L126.82 33.44ZM136.077 27.212C136.077 26.348 136.389 25.652 137.013 25.124C137.637 24.572 138.381 24.296 139.245 24.296C140.133 24.296 140.877 24.572 141.477 25.124C142.101 25.652 142.413 26.348 142.413 27.212C142.413 28.076 142.101 28.784 141.477 29.336C140.877 29.888 140.133 30.164 139.245 30.164C138.381 30.164 137.637 29.888 137.013 29.336C136.389 28.784 136.077 28.076 136.077 27.212ZM136.617 33.44H141.873V50H136.617V33.44ZM159.383 40.892V36.212H172.127C172.247 38.228 172.043 40.112 171.515 41.864C170.987 43.616 170.171 45.164 169.067 46.508C167.963 47.852 166.583 48.908 164.927 49.676C163.271 50.42 161.375 50.792 159.239 50.792C157.223 50.792 155.375 50.48 153.695 49.856C152.015 49.208 150.563 48.296 149.339 47.12C148.115 45.92 147.155 44.504 146.459 42.872C145.787 41.216 145.451 39.392 145.451 37.4C145.451 35.408 145.799 33.608 146.495 32C147.191 30.368 148.175 28.976 149.447 27.824C150.719 26.672 152.207 25.784 153.911 25.16C155.615 24.536 157.463 24.224 159.455 24.224C161.231 24.224 162.827 24.476 164.243 24.98C165.659 25.484 166.907 26.192 167.987 27.104C169.091 27.992 170.039 29.024 170.831 30.2L165.431 33.008C164.855 32 164.075 31.172 163.091 30.524C162.131 29.852 160.919 29.516 159.455 29.516C158.063 29.516 156.779 29.828 155.603 30.452C154.451 31.076 153.527 31.976 152.831 33.152C152.159 34.304 151.823 35.72 151.823 37.4C151.823 39.056 152.147 40.496 152.795 41.72C153.467 42.92 154.367 43.856 155.495 44.528C156.647 45.176 157.967 45.5 159.455 45.5C160.367 45.5 161.195 45.392 161.939 45.176C162.683 44.936 163.319 44.612 163.847 44.204C164.375 43.772 164.819 43.28 165.179 42.728C165.563 42.152 165.863 41.54 166.079 40.892H159.383ZM184.095 50.36C182.175 50.36 180.507 50.012 179.091 49.316C177.699 48.596 176.619 47.588 175.851 46.292C175.083 44.996 174.699 43.472 174.699 41.72C174.699 39.944 175.071 38.408 175.815 37.112C176.559 35.816 177.627 34.82 179.019 34.124C180.435 33.428 182.103 33.08 184.023 33.08C185.943 33.08 187.563 33.416 188.883 34.088C190.203 34.736 191.211 35.684 191.907 36.932C192.603 38.18 192.951 39.692 192.951 41.468C192.951 41.732 192.951 41.996 192.951 42.26C192.951 42.5 192.927 42.704 192.879 42.872H177.759V39.848H187.983L186.687 41.504C186.807 41.336 186.903 41.132 186.975 40.892C187.071 40.628 187.119 40.412 187.119 40.244C187.119 39.524 186.987 38.9 186.723 38.372C186.459 37.844 186.087 37.436 185.607 37.148C185.127 36.86 184.563 36.716 183.915 36.716C183.099 36.716 182.415 36.896 181.863 37.256C181.311 37.616 180.891 38.168 180.603 38.912C180.339 39.632 180.195 40.544 180.171 41.648C180.171 42.656 180.315 43.52 180.603 44.24C180.891 44.96 181.323 45.512 181.899 45.896C182.475 46.256 183.183 46.436 184.023 46.436C184.983 46.436 185.799 46.256 186.471 45.896C187.167 45.536 187.719 44.996 188.127 44.276L192.987 45.464C192.123 47.096 190.947 48.32 189.459 49.136C187.995 49.952 186.207 50.36 184.095 50.36ZM200.52 44.816C200.52 45.248 200.628 45.62 200.844 45.932C201.06 46.22 201.348 46.448 201.708 46.616C202.068 46.76 202.464 46.832 202.896 46.832C203.52 46.832 204.096 46.7 204.624 46.436C205.152 46.172 205.584 45.776 205.92 45.248C206.256 44.72 206.424 44.072 206.424 43.304L207 45.464C207 46.52 206.712 47.42 206.136 48.164C205.56 48.884 204.816 49.436 203.904 49.82C202.992 50.18 202.008 50.36 200.952 50.36C199.896 50.36 198.912 50.168 198 49.784C197.112 49.376 196.392 48.776 195.84 47.984C195.312 47.192 195.048 46.232 195.048 45.104C195.048 43.52 195.612 42.272 196.74 41.36C197.868 40.424 199.464 39.956 201.528 39.956C202.536 39.956 203.436 40.052 204.228 40.244C205.044 40.436 205.74 40.676 206.316 40.964C206.892 41.252 207.324 41.552 207.612 41.864V44.276C207.036 43.844 206.364 43.52 205.596 43.304C204.852 43.064 204.06 42.944 203.22 42.944C202.572 42.944 202.056 43.016 201.672 43.16C201.288 43.304 201 43.52 200.808 43.808C200.616 44.072 200.52 44.408 200.52 44.816ZM198.108 38.516L196.272 34.88C197.208 34.424 198.336 33.992 199.656 33.584C200.976 33.176 202.416 32.972 203.976 32.972C205.44 32.972 206.748 33.188 207.9 33.62C209.052 34.028 209.964 34.628 210.636 35.42C211.308 36.212 211.644 37.184 211.644 38.336V50H206.424V39.56C206.424 39.152 206.352 38.804 206.208 38.516C206.088 38.204 205.896 37.94 205.632 37.724C205.368 37.508 205.032 37.352 204.624 37.256C204.24 37.16 203.796 37.112 203.292 37.112C202.548 37.112 201.816 37.196 201.096 37.364C200.4 37.532 199.788 37.736 199.26 37.976C198.732 38.192 198.348 38.372 198.108 38.516ZM221.078 33.44V50H215.714V33.44H221.078ZM225.866 39.056C225.578 38.768 225.266 38.54 224.93 38.372C224.618 38.204 224.222 38.12 223.742 38.12C223.214 38.12 222.746 38.264 222.338 38.552C221.93 38.84 221.618 39.26 221.402 39.812C221.186 40.364 221.078 41.036 221.078 41.828L219.782 39.92C219.782 38.6 220.034 37.424 220.538 36.392C221.066 35.36 221.75 34.544 222.59 33.944C223.43 33.344 224.306 33.044 225.218 33.044C225.818 33.044 226.394 33.164 226.946 33.404C227.498 33.644 227.918 33.98 228.206 34.412L225.866 39.056Z" fill="#1C32FF"/>
</svg>
